<svg xmlns="http://www.w3.org/2000/svg" viewBox="0 0 512 512" style="height: 32px; width: 32px;"><path d="M0 0h512v512H0z" fill="#cbcbcb" fill-opacity="0"></path><g class="" transform="translate(0,0)" style=""><g><path d="M464.416 141.915C455.899 135.166 449.15 127.05 444.408 117.211C436.648 100.845 423.36 90.42 412.036 78.505C399.964 62.865 393.78 48.043 377.517 38.37C373.714 44.044 369.615 52.343 362.251 50.11C352.498 44.951 357.452 36.728 360.528 29.31C354.205 24.71 339.033 20.309 333.018 21.383C332.141 29.339 330.808 38.875 322.188 38.477C308.003 33.822 319.782 18.504 308.762 19.153C298.84 19.712 289.787 21.703 281.132 24.037C283.572 33.459 286.794 46.292 279.482 49.353C268.665 50.995 266.678 39.158 263.672 31.373C255.414 33.084 239.512 43.077 235.831 48.846C239.706 53.469 244.987 59.451 243.193 64.76C235.037 76.192 228.116 67.818 222.193 61.622C215.375 67.78 207.282 82.09 206.857 88.732C214.683 91.796 224.835 97.347 220.14 105.767C213.935 113.051 207.147 108.755 200.486 106.393C198.282 116.637 198.186 127.689 198.41 137.278C198.504 141.218 199.448 141.678 203.53 141.348C209.973 140.454 217.306 142.186 218.348 148.558C216.978 158.305 209.238 158.548 202.587 160.508C205.229 171.148 209.57 180.339 215.422 189.198C221.392 185.695 227.243 181.354 232.552 188.054C237.79 194.72 232.764 199.486 227.974 203.614C231.184 208.251 238.497 213.984 246.071 218.007C254.544 222.653 255.344 210.125 264.239 213.336C270.469 216.514 269.927 221.632 269.925 227.033C278.065 228.59 285.758 229.77 293.638 229.605C306.191 214.934 316.004 225.826 320.677 224.438C334.454 218.285 348.532 211.133 355.573 199.085C337.221 205.467 317.416 208.315 301.211 205.007C283.728 201.257 268.769 193.116 258.245 178.251C246.26 161.369 243.712 142.529 247.982 122.651C254 94.443 277.215 75.188 303.075 72.63C322.864 70.672 347.455 71.96 366.073 76.865C370.627 78.069 372.916 82.705 371.996 86.917C370.958 91.683 367.253 94.337 362.133 93.96C346.466 92.851 327.93 87.895 315.299 96.638C310.699 99.883 309.14 107.22 311.547 112.635C322.497 124.84 340.996 104.672 349.888 111.373C352.814 114.003 353.664 117.213 352.673 121.07C346.994 148.347 334.825 169.464 319.24 187.383C338.28 192.969 360.028 174.426 365.06 166.49C376.81 152.096 384.506 164 382.827 177.202C379.547 201.587 367.089 220.062 346.232 232.767C327.356 244.235 306.711 248.446 284.768 247.125C259.286 245.627 236.918 236.649 217.688 219.932C196.114 212.659 154.284 210.384 132.912 210.317C116.655 210.482 101.036 213.397 85.841 218.977C67.272 225.795 51.982 237.132 40.091 252.834C29.854 267.58 32.978 274.464 39.971 280.449C46.956 272.832 51.238 258.21 59.674 255.43C63.85 254.121 67.79 253.956 71.047 257.389C75.22 263.019 72.478 267.689 70.599 272.796C64.901 289.621 66.849 302.797 69.442 318.605C72.958 339.581 69.702 359.2 57.243 376.636C53.893 381.296 54.153 384.966 56.135 389.849C61.49 403.051 66.682 416.346 71.329 429.795C78.817 449.39 76.379 467.509 80.531 485.466C81.971 491.684 82.985 492.533 89.214 492.756C98.367 492.552 106.912 493.457 114.884 492.781C119.887 492.131 120.972 490.256 118.802 485.513C105.614 466.118 98.941 441.451 92.8 421.089C89.26 409.162 89.024 396.869 90.605 384.517C91.549 377.179 95.325 372.944 102.473 370.455C111.533 367.317 120.546 363.648 128.828 358.905C159.243 339.654 172.728 309.95 178.754 278.047C196.579 280.997 178.631 278.057 196.379 280.642C192.809 300.429 184.026 321.354 176.772 337.493C186.158 345.354 220.98 357.159 272.732 348.158C272.04 332.085 265.264 322.948 257.158 310.925C271.559 299.845 258.031 310.043 271.692 300.013C288.652 324.63 291.986 346.534 293.304 372.223C292.617 385.286 284.702 395.531 278.062 405.173C276.292 407.745 276.292 409.751 278.227 412.382C293.237 436.337 287.609 459.176 287.122 483.778C286.981 489.807 288.538 491.754 294.461 492.06C301.185 492.379 307.957 491.942 314.681 491.305C318.267 490.951 319.801 488.568 318.621 485.147C312.745 473.221 304.687 468.197 307.461 454.014C313.856 424.591 319.613 394.909 336.978 369.297C341.392 361.247 345.141 351.518 347.454 343.71C348.894 338.814 350.994 335.168 355.311 332.266C376.783 317.991 390.185 298.03 395.918 272.902C400.755 251.762 402.715 230.782 400.285 209.465C399.247 200.275 397.501 191.168 396.392 181.978C395.542 175.041 397.522 170.077 404.247 171.221C422.58 174.418 441.125 174.525 459.6 175.244C465.83 175.492 470.666 173.18 474.819 168.838C484.077 155.733 473.972 149.476 464.416 141.915Z" class="" fill="#0a5411" fill-opacity="1"></path><path d="M423.88 118.343C420.459 123.864 413.215 125.539 407.694 122.118C402.196 118.685 400.498 111.43 403.944 105.908C407.364 100.388 427.348 112.822 423.88 118.343Z" class="selected" fill="#000000" fill-opacity="1"></path></g></g></svg>